<svg xmlns="http://www.w3.org/2000/svg" viewBox="0 28 460 66" fill="none">
  <defs>
    <pattern id="mesh" width="36" height="36" patternUnits="userSpaceOnUse">
      <g fill="none" stroke="rgba(231,196,108,0.28)" stroke-width="1.35" stroke-linecap="round" stroke-linejoin="round">
        <path d="M18 0c-7 9-9 16-9 18s2 9 9 18c7-9 9-16 9-18S25 9 18 0Z"/>
        <path d="M0 18c9-7 16-9 18-9s9 2 18 9c-9 7-16 9-18 9S9 25 0 18Z"/>
      </g>
    </pattern>
    <pattern id="mesh-fine" width="24" height="24" patternUnits="userSpaceOnUse">
      <g fill="none" stroke="rgba(240,201,106,0.16)" stroke-width="1.05" stroke-linecap="round" stroke-linejoin="round">
        <path d="M12 0c-5 6-6 10-6 12s1 6 6 12c5-6 6-10 6-12S17 6 12 0Z"/>
        <path d="M0 12c6-5 10-6 12-6s6 1 12 6c-6 5-10 6-12 6S6 17 0 12Z"/>
      </g>
    </pattern>
    <linearGradient id="gold" x1="0" y1="0" x2="1" y2="0">
      <stop offset="0" stop-color="#DCAF3A"/>
      <stop offset="0.5" stop-color="#F0C96A"/>
      <stop offset="1" stop-color="#DCAF3A"/>
    </linearGradient>
  </defs>

  <rect x="6" y="28" width="448" height="66" fill="url(#mesh)" opacity="0.95"/>
  <rect x="18" y="34" width="424" height="54" fill="url(#mesh-fine)" opacity="0.88"/>

  <g fill="none" stroke="url(#gold)" stroke-linecap="round" stroke-linejoin="round">
    <path d="M14 92h108c8-20 24-32 44-36 8-26 28-40 64-52 36 12 56 26 64 52 20 4 36 16 44 36h108" stroke-width="7"/>
    <path d="M0 92h126c8-22 28-38 52-38 8-30 28-46 52-54 24 8 44 24 52 54 24 0 44 16 52 38h126" stroke-width="2.6" opacity="0.92"/>
    <path d="M0 92h460" stroke-width="4.2" opacity="0.9"/>
    <path d="M30 92h82c8-16 20-24 34-27 7-20 24-31 84-50 60 19 77 30 84 50 14 3 26 11 34 27h82" stroke-width="1.8" opacity="0.88"/>
  </g>

  <g fill="none" stroke="rgba(231,196,108,0.42)" stroke-width="1.7" stroke-linecap="round">
    <path d="M34 82c18-16 38-26 62-30"/>
    <path d="M92 82c18-16 38-26 62-30"/>
    <path d="M150 82c20-22 46-36 80-46 34 10 60 24 80 46"/>
    <path d="M306 82c18-16 38-26 62-30"/>
    <path d="M364 82c18-16 38-26 62-30"/>
    <path d="M54 90c14-12 30-20 47-24"/>
    <path d="M359 90c14-12 30-20 47-24"/>
  </g>

  <g fill="none" stroke="rgba(240,201,106,0.92)" stroke-width="2.2" stroke-linecap="round" stroke-linejoin="round">
    <path d="M216 71l14-14 14 14"/>
    <path d="M205 92c7-14 15-25 25-34 10 9 18 20 25 34"/>
    <path d="M218 82l12-12 12 12-12 12Z"/>
    <path d="M192 92c8-10 16-18 26-25"/>
    <path d="M268 92c-8-10-16-18-26-25"/>
  </g>
</svg>
